<?xml version="1.0" encoding="utf-8"?>
<!-- Generator: Adobe Illustrator 25.4.1, SVG Export Plug-In . SVG Version: 6.00 Build 0)  -->
<svg version="1.1" id="Layer_1" xmlns="http://www.w3.org/2000/svg" xmlns:xlink="http://www.w3.org/1999/xlink" x="0px" y="0px"
	 viewBox="0 0 841.89 595.28" style="enable-background:new 0 0 841.89 595.28;" xml:space="preserve">
<style type="text/css">
	.st0{fill:#FFFFFF;}
</style>
<g>
	<path class="st0" d="M170.76,38.36c17.28,0,34,0,50.87,0c27.01,69.31,54.01,138.6,81.01,207.89c0.36,0.06,0.72,0.13,1.07,0.19
		c28.09-74.01,56.17-148.02,84.66-223.09c27.26,75.05,54.16,149.12,81.4,224.14c1.12-2.49,1.85-3.99,2.49-5.52
		c27.43-66.27,54.89-132.54,82.18-198.86c1.57-3.81,3.4-5.11,7.55-5.02c13.67,0.31,27.36,0.12,41.04,0.12c1.29,0,2.58,0,4.45,0
		c-46.55,110.76-92.88,220.99-139.61,332.17c-26.92-74.18-53.51-147.46-80.5-221.83c-28.15,74.45-55.86,147.76-83.95,222.04
		C259.03,259.41,214.96,149.05,170.76,38.36z"/>
	<path class="st0" d="M671.77,32.09c51.04,113.6,101.67,226.29,152.51,339.46c-1.15,0.1-1.87,0.22-2.58,0.22
		c-15.55,0.01-31.11-0.04-46.66,0.06c-2.35,0.02-3.46-0.72-4.4-2.9c-10.05-23.49-20.31-46.9-30.26-70.43
		c-1.56-3.7-3.46-4.78-7.39-4.76c-42.63,0.15-85.27,0.14-127.91,0.02c-3.18-0.01-4.69,0.98-5.99,3.86
		c-10.63,23.53-21.44,46.99-32.19,70.46c-0.55,1.21-1.18,2.38-1.8,3.61c-16.96,0-33.84,0-51.52,0
		C566.29,258.55,618.82,145.78,671.77,32.09z M670.94,139.36c-16.97,37.1-33.39,73.01-49.96,109.23c32.9,0,64.98,0,97.64,0
		C702.77,212.26,687.12,176.4,670.94,139.36z"/>
	<path class="st0" d="M197.98,277.11c-44.92,0-89.64,0-134.78,0c0.82,12.99,4.42,24.53,12.51,34.39
		c11.82,14.39,27.52,18.07,45.2,15.9c11.93-1.46,21.4-7.37,28.82-16.62c4.85-6.05,9.39-12.34,14.31-18.83
		c11.89,6.61,23.91,13.29,36.1,20.07c-16.82,28.9-39.18,50.03-73.71,53.85c-23.03,2.55-45.53,0.26-65.86-12.39
		c-21.17-13.18-33.88-32.5-39.36-56.44c-5.16-22.55-5.05-45.29,2.09-67.46c11.25-34.9,34.59-56.23,71.58-61.11
		c19.2-2.54,38.03-0.89,55.71,7.63c21.78,10.49,35.39,28.04,42.58,50.82c4.98,15.79,5.91,32.05,5.29,48.47
		C198.46,275.75,198.27,276.12,197.98,277.11z M153.49,241.54c-4.3-21.71-19.64-35.28-44.11-35.09
		c-26.41,0.2-41.5,21.81-42.59,35.09C95.68,241.54,124.57,241.54,153.49,241.54z"/>
	<path class="st0" d="M174.58,473.42c-20.79-0.25-36.47-16.14-36.15-36.62c0.31-19.76,16.95-35.34,37.43-35.06
		c19.44,0.26,35.21,16.48,35.11,36.11C210.87,457.77,194.61,473.67,174.58,473.42z M174.6,463.97
		c14.73-0.04,26.14-11.53,26.19-26.34c0.04-14.84-11.42-26.45-26.07-26.42c-14.47,0.03-25.93,11.52-26.04,26.09
		C148.56,452.02,160.22,464.01,174.6,463.97z"/>
	<path class="st0" d="M639.18,415.15c-2.26,2.54-4.28,4.82-5.63,6.34c-5.44-3.34-10.02-7.49-15.37-9.19
		c-17.23-5.49-33.7,8.53-32.73,27.2c0.85,16.34,17.41,28.38,32.16,23.46c6.01-2.01,14.01-9.04,13.73-17.02c-5.39,0-10.81,0-16.55,0
		c0-3.3,0-6.16,0-9.29c9.15,0,18.21,0,27.28,0c2.92,15.71-6.82,31.59-22.17,35.58c-14.17,3.68-26.66,0.16-36.26-11.19
		c-9.66-11.42-11.33-24.58-5.42-37.99c5.86-13.31,16.63-20.59,31.47-21.33C621.88,401.11,631.44,406.13,639.18,415.15z"/>
	<path class="st0" d="M333.82,402.87c11.43,0.24,22.75-1.18,33.51,3.22c14.01,5.73,21.73,20.92,19.32,37.46
		c-2.16,14.8-14.22,26.81-28.95,27.99c-7.81,0.63-15.71,0.11-23.87,0.11C333.82,449.09,333.82,426.26,333.82,402.87z M350.59,412.63
		c-7.07-0.56-7.07-0.56-7.07,6.38c0,11.1,0,22.2,0,33.3c0,11.49-0.01,11.41,11.52,10.01c18.79-2.27,26.27-21.37,19.01-36.56
		C369.4,416.04,360.71,412.9,350.59,412.63z"/>
	<path class="st0" d="M484.25,472.86c-0.11-2.41-0.24-3.85-0.24-5.29c-0.01-19.97,0.09-39.94-0.1-59.91
		c-0.04-3.94,1.19-5.15,5.01-4.85c7.2,0.56,14.55,0.08,21.62,1.3c16.16,2.8,26.41,15.42,26.81,31.87
		c0.44,17.77-9.33,31.74-25.73,34.9C502.81,472.58,493.61,472.26,484.25,472.86z M494,437.59c0,7.35,0.06,14.71-0.04,22.06
		c-0.03,2.43,0.85,3.44,3.28,3.22c2.93-0.27,5.88-0.28,8.79-0.67c9.24-1.24,16.05-6.11,19.32-14.82c3.44-9.17,2.61-18.15-3.7-26.09
		c-6.05-7.6-14.68-8.48-23.51-8.93c-2.99-0.15-4.34,0.61-4.22,3.97C494.17,423.41,494,430.5,494,437.59z"/>
	<path class="st0" d="M441.75,403.15c3.44,0,6.58,0,10.19,0c0,3.47,0,6.78,0,10.08c-0.01,11.79,0.18,23.58-0.1,35.35
		c-0.27,11.41-7.12,20.45-17.29,23.63c-11,3.45-22.58,0.12-28.91-9.18c-2.45-3.6-4.45-8.28-4.6-12.54
		c-0.54-15.64-0.21-31.31-0.21-47.3c3.22,0,6.35,0,9.85,0c0.07,1.48,0.18,2.89,0.19,4.31c0.02,12.46-0.03,24.91,0.05,37.36
		c0.02,2.52,0.22,5.1,0.74,7.56c1.55,7.38,6.99,11.55,14.71,11.53c7.7-0.02,13.18-4.25,14.6-11.64c0.6-3.12,0.74-6.37,0.75-9.57
		C441.79,429.65,441.75,416.54,441.75,403.15z"/>
	<path class="st0" d="M750.89,398.81c11.15,24.84,21.96,48.93,32.77,72.99c-0.56,0.3-0.67,0.4-0.78,0.41
		c-9.77,0.77-10.33,0.96-13.47-8.26c-2.39-7.01-6.07-9.57-13.34-8.67c-5.41,0.67-10.99,0.37-16.46,0.05
		c-3.4-0.2-5.07,1.04-6.19,4.12c-1.18,3.26-3.04,6.27-4.25,9.52c-1,2.67-2.52,3.75-5.37,3.42c-2.11-0.24-4.27-0.05-7.14-0.05
		C728.1,447.77,739.34,423.62,750.89,398.81z M761.27,445.69c-3.5-8.01-6.79-15.56-10.56-24.19c-3.95,8.66-7.39,16.19-11.04,24.19
		C747.14,445.69,753.85,445.69,761.27,445.69z"/>
	<path class="st0" d="M303.67,462.86c0,3.47,0,6.25,0,9.25c-12.59,0-25,0-37.81,0c-0.08-1.08-0.25-2.22-0.25-3.37
		c-0.02-20.63,0.06-41.26-0.09-61.89c-0.02-3.25,1-4.09,4.1-4.05c11.23,0.15,22.46,0.06,33.96,0.06c0,3.26,0,6.1,0,9.51
		c-7.48,0-14.81,0-22.13,0c-5.68,0-5.68,0.01-5.69,5.58c0,3.61,0,7.21,0,11.5c9.1,0,17.96,0,27.04,0c0,3.44,0,6.21,0,9.6
		c-8.82,0-17.69,0-27,0c0,7.67-0.09,14.74,0.14,21.79c0.02,0.7,1.96,1.89,3.04,1.91c6.69,0.18,13.4,0.09,20.1,0.09
		C300.51,462.86,301.95,462.86,303.67,462.86z"/>
	<path class="st0" d="M63.11,403.08c0,3.04,0,5.79,0,9.3c-2.27,0-4.48,0-6.69,0c-5.76,0-11.53,0.14-17.29-0.05
		c-3.04-0.1-4.06,1-3.85,3.97c0.21,3.07,0.22,6.17,0,9.24c-0.22,3.12,0.83,4.27,4.06,4.18c7.49-0.2,14.99-0.06,22.84-0.06
		c0,3.17,0,6.03,0,9.43c-8.7,0-17.48,0-26.81,0c0,7.57-0.1,14.64,0.15,21.69c0.03,0.74,2.19,1.97,3.38,2
		c7.9,0.18,15.81,0.09,24.07,0.09c0,3.16,0,6.12,0,9.28c-12.38,0-24.66,0-37.35,0c-0.1-1.5-0.28-2.92-0.28-4.33
		c-0.02-20.1,0.08-40.21-0.09-60.31c-0.03-3.71,1.06-4.81,4.76-4.72c9.65,0.25,19.3,0.07,28.96,0.09
		C60.27,402.88,61.59,403,63.11,403.08z"/>
	<path class="st0" d="M128.65,417.77c-19.7-9.18-30.06-8.03-39.22,4.09c-7.29,9.65-6.67,24.06,1.43,33.48
		c9.1,10.57,20.49,11.19,37.75,1.69c0,3.55,0.23,6.84-0.13,10.07c-0.12,1.06-1.63,2.34-2.8,2.84c-12.56,5.38-24.92,5.21-36.27-2.84
		c-11.39-8.08-16.56-19.28-14.88-33.4c2.78-23.34,26.08-37.93,47.94-29.98c6.19,2.25,6.19,2.25,6.19,8.78
		C128.65,414.19,128.65,415.88,128.65,417.77z"/>
	<path class="st0" d="M718.11,403.24c1.14,9.14,1.14,9.14-7.29,9.15c-8.31,0-8.31,0-8.31,8.23c0,15.53,0,31.06,0,46.59
		c0,1.57,0,3.13,0,4.91c-3.41,0-6.31,0-9.73,0c-0.08-1.49-0.24-3.02-0.24-4.56c-0.02-16.6-0.01-33.2-0.01-49.8
		c0-5.36-0.01-5.36-5.55-5.37c-2.14,0-4.3-0.16-6.42,0.03c-3.1,0.28-4.49-0.8-4.09-4.04c0.2-1.57,0.03-3.18,0.03-5.14
		C690.51,403.24,704.2,403.24,718.11,403.24z"/>
	<path class="st0" d="M224.79,403.16c3.36,0,6.49,0,9.93,0c0,6.98,0,13.66,0,20.35c0,11.79,0.12,23.59-0.07,35.38
		c-0.05,3.27,1.03,4.15,4.13,4.03c5.33-0.22,10.68-0.06,16.29-0.06c0,3.25,0,6.12,0,9.24c-10.13,0-20.1,0-30.29,0
		C224.79,449.1,224.79,426.27,224.79,403.16z"/>
	<path class="st0" d="M803.37,462.71c6.91,0,13.3,0,20.04,0c0,3.31,0,6.27,0,9.43c-9.94,0-19.79,0-29.89,0c0-23.01,0-45.84,0-69.27
		c1.91,0,3.76,0.16,5.57-0.04c3.28-0.36,4.4,0.81,4.36,4.22c-0.17,14.33-0.07,28.66-0.07,42.98
		C803.37,454.14,803.37,458.25,803.37,462.71z"/>
	<path class="st0" d="M561.14,472.13c-3.24,0-6.28,0-9.65,0c0-22.88,0-45.82,0-68.99c3.21,0,6.36,0,9.65,0
		C561.14,426.25,561.14,449.09,561.14,472.13z"/>
	<path class="st0" d="M666.57,472.16c-3.52,0-6.54,0-9.84,0c0-22.99,0-45.82,0-68.62c0.26-0.17,0.47-0.41,0.71-0.44
		c9.13-1.12,9.13-1.12,9.13,7.92c0,18.75,0,37.49,0,56.24C666.57,468.83,666.57,470.4,666.57,472.16z"/>
</g>
</svg>
